<svg xmlns="http://www.w3.org/2000/svg" viewBox="0 0 1070 246.5"><g id="Capa_2" data-name="Capa 2"><g id="Capa_2-2" data-name="Capa 2"><path d="M1060,54.628a44.5,44.5,0,0,0-.5-6.654V46.223A36.224,36.224,0,0,0,1023.277,10H46.723A36.224,36.224,0,0,0,10.5,46.223v1.751a44.5,44.5,0,0,0-.5,6.654V173.372a44.5,44.5,0,0,0,.5,6.654v1.751A36.224,36.224,0,0,0,46.723,218H78.1A26.009,26.009,0,0,0,103,236.5H385A26.009,26.009,0,0,0,409.9,218h613.38a36.224,36.224,0,0,0,36.223-36.223v-1.751a44.5,44.5,0,0,0,.5-6.654Z" fill="none" stroke="#03f1fb" stroke-miterlimit="10" stroke-width="20"/><rect x="10.362" y="10.505" width="1050" height="207" rx="44.128" fill="#0b8ffc"/><rect x="50.362" y="27.505" width="925" height="174" rx="46.606" fill="#04125b"/><rect x="997.362" y="55.505" width="41" height="117" rx="18.819" fill="#03f1fb" stroke="#101364" stroke-miterlimit="10" stroke-width="6"/><rect x="10.862" y="10.005" width="1049" height="208" rx="36.223" fill="none" stroke="#101364" stroke-miterlimit="10" stroke-width="6"/><rect x="77.362" y="184.505" width="334" height="52" rx="26" fill="#1889e7" stroke="#101364" stroke-miterlimit="10" stroke-width="6"/><text transform="translate(155.533 221.62)" font-size="33.328" fill="#fff" font-family="Determination">ANIMACIÓN</text><text transform="translate(123.456 163.837)" font-size="150.106" fill="#03f1fb" font-family="Determination">ANIMATION</text></g></g></svg>