<svg xmlns="http://www.w3.org/2000/svg" viewBox="0 0 1071 247.5"><g id="Capa_2" data-name="Capa 2"><g id="Capa_3" data-name="Capa 3"><path d="M1060.5,55.128a44.5,44.5,0,0,0-.5-6.654V46.723A36.224,36.224,0,0,0,1023.777,10.5H47.223A36.224,36.224,0,0,0,11,46.723v1.751a44.5,44.5,0,0,0-.5,6.654V173.872a44.5,44.5,0,0,0,.5,6.654v1.751A36.224,36.224,0,0,0,47.223,218.5H620.6A26.009,26.009,0,0,0,645.5,237h282a26.009,26.009,0,0,0,24.9-18.5h71.38A36.224,36.224,0,0,0,1060,182.277v-1.751a44.5,44.5,0,0,0,.5-6.654Z" fill="none" stroke="#c0f430" stroke-miterlimit="10" stroke-width="21"/><rect x="10.67" y="10.899" width="1050" height="207" rx="44.128" fill="#e415c7"/><rect x="50.67" y="27.899" width="925" height="174" rx="46.606" fill="#04125b"/><rect x="997.67" y="55.899" width="41" height="117" rx="18.819" fill="#bef132" stroke="#101364" stroke-miterlimit="10" stroke-width="6"/><rect x="11.17" y="10.399" width="1049" height="208" rx="36.223" fill="none" stroke="#101364" stroke-miterlimit="10" stroke-width="6"/><rect x="619.67" y="184.899" width="334" height="52" rx="26" fill="#ee12d6" stroke="#101364" stroke-miterlimit="10" stroke-width="6"/><text transform="translate(97.935 156.424)" font-size="130.9" fill="#c0f430" font-family="Determination">ILUSTRATION</text><text transform="translate(675.935 222.983)" font-size="33.328" fill="#fff" font-family="Determination">ILUSTRACIÓN</text><text transform="translate(97.765 156.525)" font-size="130.9" fill="#c0f430" font-family="Determination">ILUSTRATION</text><text transform="translate(675.765 223.084)" font-size="33.328" fill="#fff" font-family="Determination">ILUSTRACIÓN</text></g></g></svg>