<svg xmlns="http://www.w3.org/2000/svg" viewBox="0 0 350.14 250.982"><g id="Capa_2" data-name="Capa 2"><g id="Capa_3" data-name="Capa 3"><path d="M181.874,173.586a156.011,156.011,0,0,0,36.961-12.622,64.67,64.67,0,0,0,13.906-8.889A20.168,20.168,0,0,0,238,145.762c1.364-2.791.518-4.748-2.5-5.647a16.524,16.524,0,0,0-6.03-.519,115.547,115.547,0,0,0-19.707,3.384c-3.932.994-7.941,1.683-11.912,2.52-1.135.24-2.278.464-3.385.8a24.115,24.115,0,0,0-2.478,1.066c-1.3,3.748-1.551,7.653-1.946,11.529-.118,1.153-.086,2.325-.26,3.467a2.441,2.441,0,0,1-2.01,2.016,2.141,2.141,0,0,1-2.1-1.837,31.05,31.05,0,0,1-.326-5.182,86.788,86.788,0,0,1,2.133-15.067q1.614-7.442,3.336-14.86a12.826,12.826,0,0,1,1.2-3.234c.856-1.556,2.23-1.647,3.541-.34a12.131,12.131,0,0,1,1.054,1.407c1.621,0,3.213-.021,4.8.005a9.649,9.649,0,0,1,4.946,1.489,4.673,4.673,0,0,1,2.111,5.991,22.4,22.4,0,0,1-2.14,3.746c-.5.8-1.1,1.529-2.092,2.892,2.5-.649,4.308-1.082,6.094-1.585a80.663,80.663,0,0,1,18.847-3.159,46.123,46.123,0,0,1,6.509.263,9.264,9.264,0,0,1,5.747,2.839,7.373,7.373,0,0,1,2.116,7.575,16.6,16.6,0,0,1-2.411,5.062,38.034,38.034,0,0,1-5.3,5.729,65.571,65.571,0,0,1-14.619,9.378,161.8,161.8,0,0,1-33.512,12.06,10.18,10.18,0,0,0-4.312,1.662c1.652,0,2.929.062,4.2-.009,16.724-.943,33.213-3.267,49.168-8.59a171.6,171.6,0,0,0,26.8-11.4c3.629-1.943,5.11-4.747,5.782-8.538,1.009-5.69-1.085-9.933-5.574-13.2a24.307,24.307,0,0,0-11.275-4.305c-4.745-.638-9.509-1.139-14.269-1.656a102.063,102.063,0,0,1-16.2-3.214,57.009,57.009,0,0,1-12.321-5.418c-3.509-1.943-5.876-5.107-7.988-8.461-7.977-12.673-9.3-26.344-5.927-40.628A81.726,81.726,0,0,1,206.1,49.45c9.444-15.244,22.956-26,38.266-34.71A115.732,115.732,0,0,1,284.977,1.058c10.734-1.6,21.406-1.591,31.938,1.453a55.226,55.226,0,0,1,17.456,8.651c10.712,7.86,13.638,20.725,10.207,31.807A42.466,42.466,0,0,1,339.3,53.912a98.577,98.577,0,0,1-20.8,23.281c-3.069,2.423-5.677,5.392-9.1,7.408-1.063.624-1.7,1.941-2.594,2.887-1.885,2-3.773,4.007-5.737,5.931a3.446,3.446,0,0,1-2.428.859l4.2-5.312a8.967,8.967,0,0,0-1.945.024,20.738,20.738,0,0,0-2,.847c-2.943,1.214-6.135,2.037-8.761,3.737-2.506,1.622-4.383,4.2-6.613,6.271a41.417,41.417,0,0,1-4.989,4.194c-4.787,3.213-10,4.557-15.715,2.917a4.994,4.994,0,0,1-1.391-.885c-.069-.05-.009-.277-.009-.62,1.238,0,2.486-.041,3.731.009a19.2,19.2,0,0,0,7.28-1c3.057-1.08,5.266-2.905,6.245-6.011-.608-.949-1.329-.423-1.966-.3-5.568,1.033-11.127,2.077-16.841,1.834A44.178,44.178,0,0,1,248.3,98.051a29.092,29.092,0,0,1-17.261-13.81,18.4,18.4,0,0,1-.362-18.323A23.77,23.77,0,0,1,243.1,54.851a36.511,36.511,0,0,1,25.138-1.357c11.3,3.394,17.926,11.353,21.049,22.422a48.718,48.718,0,0,1,1.016,7.733c.109.964.1,1.941.157,3.226,1.356-.5,2.439-.846,3.473-1.3A86.022,86.022,0,0,0,308.889,76.7a7.09,7.09,0,0,0,2.273-2.531c3.177-6.622,5.3-13.469,4.52-20.988a28.789,28.789,0,0,0-10.024-19.644c-5.761-4.969-12.541-7.754-19.924-9.207a71.652,71.652,0,0,0-26.839.144,12.526,12.526,0,0,0-4.4,1.746c-15.733,10.076-28.212,23.148-36.534,40a52.058,52.058,0,0,0-5.271,28.727,35.429,35.429,0,0,0,4.109,13.657,5.343,5.343,0,0,0,3.937,3,83.937,83.937,0,0,0,21.234,1.158c7.82-.416,15.662-.514,23.5-.547a35.338,35.338,0,0,1,12.71,2.708,25.686,25.686,0,0,1,4.3,2.092,20.827,20.827,0,0,1,8.16,26.246,44.713,44.713,0,0,1-11.269,15.327,66.663,66.663,0,0,1-16.778,11.56c-5.011,2.286-9.8,5.1-14.889,7.169-18.575,7.547-37.5,14-57.341,17.423-15.465,2.671-31,4.745-46.706,5.056a133.1,133.1,0,0,1-36.259-3.851c-3.221-.836-6.344-2.052-9.512-3.092L90.7,190.5c-1.722.84-2.245,2.268-3.054,3.439-1.567,2.269-3.164,4.522-4.6,6.874a2.736,2.736,0,0,1-4.434.317c-.651-.776-1.26-1.59-1.85-2.415-.674-.942-1.3-1.917-1.96-2.87-.075-.108-.223-.166-.565-.409a19.319,19.319,0,0,0-1.824,1.588,52.685,52.685,0,0,0-7.873,10.926c-3.28,6.292-6.384,12.676-9.595,19.085,1.237,2.488,2.574,4.9,3.65,7.426a31.921,31.921,0,0,1,2.18,6.575,8.56,8.56,0,0,1-3.338,8.488,6.228,6.228,0,0,1-7.684.25,13.372,13.372,0,0,1-5.187-8.295c-.266-1.1-.409-2.238-.664-3.67-1.273.394-2.341.723-3.407,1.055-7.984,2.489-15.207,1.088-21.577-4.336a25.621,25.621,0,0,1-9.44-18.907,8.033,8.033,0,0,0-1.639-5.211,9.864,9.864,0,0,1-1.761-4.366A16.02,16.02,0,0,1,15.015,188.4a14.077,14.077,0,0,1,1.6-.688,25.5,25.5,0,0,0,8.043-5.009c3.213-2.674,6.81-4.886,10.426-7.426-.531-.382-1.163-.849-1.808-1.3-1.308-.912-2.7-1.721-3.922-2.737a16.434,16.434,0,0,1-6.031-15.5c.3-2.439,1.229-4.838,1.256-7.263s-.816-4.841-1.1-7.281a31.465,31.465,0,0,1,5.455-21.895,62.277,62.277,0,0,1,11.139-12.171c1.645-1.425,3.357-2.79,4.877-4.34a39.444,39.444,0,0,1,12.414-8.687c4.647-2.031,9.369-3.9,14.129-5.653a24.791,24.791,0,0,0,5.759-2.968,240.512,240.512,0,0,1,53.664-28.556c1.63-.61,3.286-1.153,4.926-1.737a11.262,11.262,0,0,1,7.033-.145c-.139.757-.031,1.638-.42,2.043a61.565,61.565,0,0,1-6.554,6.353c-7.9,6.087-13.964,13.919-20.643,21.168-.164.178-.125.543-.23,1.066l8.942,2.835c.543-.227,1.1-.407,1.6-.675A213.276,213.276,0,0,1,173.9,69.572c4.22-1.061,8.419-2.229,12.678-3.106a25.3,25.3,0,0,1,6.459-.387c2.064.116,2.786,1.527,1.726,3.363a22.6,22.6,0,0,1-3.633,4.832A167.389,167.389,0,0,0,174.338,93.7c-6.436,8.624-11.877,17.891-17.449,27.072a11.887,11.887,0,0,0-.619,1.588l6.021,15.231,2.509-.136c.643-1.412,1.247-2.723,1.838-4.039a54.32,54.32,0,0,1,16.858-21.26,1.8,1.8,0,0,1,.741-.438,1.914,1.914,0,0,1,1.219.123,1.345,1.345,0,0,1,.537,1.094,12.606,12.606,0,0,1-1.04,2.832c-2.82,5.335-4.183,11.111-5.217,16.987a9.863,9.863,0,0,0-.013,1.684c.962.879,1.941.326,2.889.2.822-.111,1.642-.235,2.546-.366-.237,1.806-1.607,2.216-2.681,2.876-1.1.677-2.267,1.252-3.48,1.912-1.58,10.121.459,19.581,4.463,29.087,12.247-3.86,23.446-9.528,34.67-15.048.657,1.025-.05,1.319-.4,1.576-1.635,1.205-3.27,2.425-5,3.474-8.336,5.034-16.876,9.662-26.131,12.833-1.37.47-2.729.986-4.053,1.57-.3.131-.429.638-.639.97a1.4,1.4,0,0,1-.34.066.78.78,0,0,1-.261-.125Zm-35.595-27.755c.327-.328,1.106-.394.613-1.281-.215.518-.4.958-.551,1.43-.021.116-.046.233-.064.35-.013.089-.019.179-.029.269Zm15.478-2.013c1.349-.226,1.515-1,.886-2.419-.351.992-.613,1.733-.852,2.525l-.247,3.614c-1.521.567-1.43,2.131-1.809,3.267a22.468,22.468,0,0,1-6.365,9.721c-3.873,3.5-7.736,7.049-12.5,9.355a4.022,4.022,0,0,0-2.538,3.207c-.023.165-.431.275-.667.415l-1.567-1.4c-11.348,3.907-23.066,5.849-34.864,7.4-1.779.235-3.375.664-4.477,2.291-.726,1.073-1.741,1.948-2.526,2.987a9.416,9.416,0,0,0-.852,1.906c2.088.639,3.912,1.113,5.677,1.751,14.563,5.259,29.695,6.558,45.006,6.242a278.068,278.068,0,0,0,40.661-4.221,269.038,269.038,0,0,0,35.952-8.529c1.656-.521,3.274-1.174,4.871-1.855.257-.109.314-.688.465-1.044h1.4v-.067h-1.381c-4.657,1.013-9.285,2.187-13.976,3a229.208,229.208,0,0,1-24.215,2.484c-.719.047-1.643-.1-2.114.289-1.9,1.55-4.14,1.287-6.251,1.246-10.87-.207-21.745-.391-32.6-.888a107.959,107.959,0,0,1-25.719-4,7.885,7.885,0,0,1-2.034-.7,1.836,1.836,0,0,1-.793-1.358,1.737,1.737,0,0,1,.921-1.295,9.785,9.785,0,0,1,2.983-.446c3.185,0,6.371.075,9.556.149a113.265,113.265,0,0,0,20.355-1.541,171.117,171.117,0,0,0,26.252-5.959,17.245,17.245,0,0,0,2.215-1.083c-5.93-9-7.168-13.168-7.168-23.881v-3.9a7.756,7.756,0,0,0-4.879.476,93.092,93.092,0,0,0-4.636,15.463,21.518,21.518,0,0,1-.918,3.334,1.688,1.688,0,0,1-1.342.808,1.639,1.639,0,0,1-1.25-.927,12.239,12.239,0,0,1-.348-3.831c.35-3.017.919-6.009,1.379-9.035A4.954,4.954,0,0,0,161.757,143.818ZM59.094,110.565a11.281,11.281,0,0,1,5.3,6.9,21.091,21.091,0,0,1,.545,8.183,32.346,32.346,0,0,1-5.155,13.267,68.441,68.441,0,0,1-5.743,7.642,21.9,21.9,0,0,1-9.967,6.736c-.637.2-1.255.448-1.721.616a3.182,3.182,0,0,0-.115.766c2.971,11.51,15.014,21.046,26.932,21.028,11.464-.017,22.9-.848,34.312-1.913a51.8,51.8,0,0,0,8.6-1.175,66.879,66.879,0,0,0,23.276-11.441,6.048,6.048,0,0,0,2.484-4.32c.6-4.15,1.443-8.278,2.428-12.357,1.638-6.784,4.369-13.2,7.012-19.637a7.223,7.223,0,0,0,.138-5.422c-4.008-11.852-12.4-19.618-23.02-25.32a23.686,23.686,0,0,0-6.272,3.812c1.321.724,2.448,1.355,3.587,1.963,9.422,5.035,15.053,12.963,17.5,23.212a24.568,24.568,0,0,1,.083,11.656,50.234,50.234,0,0,1-9.558,19.821,9.124,9.124,0,0,1-1.053.963,4.882,4.882,0,0,1,.963-2.839,52.835,52.835,0,0,0,6.021-12.506c1.084-3.307,2.107-6.671,2.023-10.194-.267-11.21-5-20.082-14.218-26.491a26.1,26.1,0,0,0-8.476-4.05c-1.42.878-2.673,1.606-3.878,2.407-4.829,3.216-9.637,6.461-14.465,9.679-1.305.87-2.462,2.038-4.19,2.245l-2.153-1.483c-1.214,1.1-2.355,2.2-3.584,3.188-.342.276-.947.227-1.7.383a9.007,9.007,0,0,1,1.884-4.666c2.983-4.1,6.04-8.152,9.045-12.238.477-.648,1.4-1.142.968-2.2C86.92,95.517,68.355,100.818,59.094,110.565ZM17.639,192.034c-3,.243-4.678,1.989-6.07,4.1a9.35,9.35,0,0,0-1.53,6.986c1.781-2.795,3.324-4.9,5.719-6.126.633-.325,1.3-.685,2.075.3-.58,1.93-1.114,4.034-1.846,6.066a30,30,0,0,0-1.807,10.232,21.7,21.7,0,0,0,7.573,16.945c6.61,5.818,15.272,6.185,22.407.984.915-.667,1.813-1.359,2.978-2.234a14.36,14.36,0,0,1,.783,2.681c.145,1.879.111,3.771.183,5.656a11.144,11.144,0,0,0,3.52,8.158,2.4,2.4,0,0,0,3.775-.422,4.657,4.657,0,0,0,.851-4.515,58.8,58.8,0,0,0-2.6-6.435,44.767,44.767,0,0,1-3.38-9.039c2.258-4.565,4.458-8.815,6.481-13.148a75.012,75.012,0,0,1,12.292-18.911c.481-.53.891-1.124,1.363-1.725-.465-2.817-1.166-5.285-3.763-7.04-3.375-2.281-6.987-2.661-10.815-2.134a20.976,20.976,0,0,0-13.223,6.874c-3.483,3.893-7.016,7.743-10.55,11.59-.534.582-.959,1.561-2.365.8A13.576,13.576,0,0,1,30.512,199c3.391-6.291,7.206-12.267,12.971-16.724a9.338,9.338,0,0,0,1.01-.82,2.011,2.011,0,0,0-.64-3.263,3.617,3.617,0,0,0-2.465-.089,77.649,77.649,0,0,0-8.2,3.97,42.632,42.632,0,0,0-8.68,7.224,20.87,20.87,0,0,1-6.2,4.806C18.058,193.329,17.891,192.814,17.639,192.034ZM280.489,90.426A25.6,25.6,0,0,0,281.5,79.681a19.1,19.1,0,0,0-8.269-15.049c-10.5-7.392-21.619-8.082-33.374-3.316-4.718,1.913-7.312,5.426-8.9,10.007a12.978,12.978,0,0,0,.5,9.73,15.7,15.7,0,0,0,6.47,7.4,22.882,22.882,0,0,0,7.659,2.959c2.559.466,5.158.713,7.727,1.131C262.5,94.04,271.455,92.733,280.489,90.426Zm-10.33-72.038.168.77c.712.032,1.425.089,2.138.094a75.125,75.125,0,0,1,15.1,1.624,45.555,45.555,0,0,1,20.243,9.532,31.825,31.825,0,0,1,10.807,17.424,34.6,34.6,0,0,1-.74,19.292c-.227.681-1.053,1.446.2,2.4,5-4.632,9.856-9.357,13.35-15.285a22.137,22.137,0,0,0,1.832-4.4c1.868-5.738,1.925-11.643,1.582-17.6-.516-8.972-5.075-15.171-12.928-19.172a56.813,56.813,0,0,0-12.7-4.405,16.9,16.9,0,0,0-8.13.036,268.623,268.623,0,0,0-28.276,8.524C271.908,17.561,271.043,18,270.159,18.388ZM243.718,29.559a49.882,49.882,0,0,0-17.941,8.612c-14.213,10.245-23.869,23.442-26.568,41.154-.983,6.452-.682,12.695,2.118,18.7a20.153,20.153,0,0,0,10.032,10.4c.5.224,1.062.568,1.647-.249-.195-.559-.393-1.233-.662-1.877a43.658,43.658,0,0,1-3.1-15.241c-.412-9.963,2.159-19.209,6.641-28.009a100.422,100.422,0,0,1,24.267-30.376C241.343,31.641,242.528,30.6,243.718,29.559ZM129.773,91.27a71.085,71.085,0,0,1,22.362,22.166c2.689-3.3,4.055-6.993,6.094-10.273,2.142-3.448,4.146-6.984,6.364-10.382,2.138-3.276,4.408-6.472,6.736-9.618,2.387-3.225,4.914-6.346,7.842-10.1C162.014,77.944,145.717,82.9,129.773,91.27ZM41.651,147.737c2.553-.046,4.673-1.3,6.631-2.768a31.537,31.537,0,0,0,11.7-17.367,15.326,15.326,0,0,0-.285-9.857c-1.359-3.393-4.437-3.922-6.735-1.113-6.384,7.806-10.648,16.573-11.665,26.727C41.153,144.765,40.8,146.231,41.651,147.737ZM294.735,7.617l-.214-.514c-2.17,0-4.351-.139-6.509.022A115.217,115.217,0,0,0,237.4,22.891a80.919,80.919,0,0,0-16.863,12.943c-.552.562-1.014,1.212-1.551,1.862.366.2.529.342.595.307a9.891,9.891,0,0,0,1.484-.873A85.488,85.488,0,0,1,254.3,21.61a25.013,25.013,0,0,0,5.229-2.053,97.3,97.3,0,0,1,16.51-6.663c5.152-1.478,10.338-2.843,15.5-4.274C292.614,8.322,293.67,7.953,294.735,7.617ZM28.031,141.056a10,10,0,0,0,.831-1.362A92.279,92.279,0,0,1,41.92,117.761c.535-.677,1.343-1.378,1.422-2.131.223-2.13,1.725-3.293,3.069-4.543,3.178-2.954,6.465-5.792,9.672-8.716.565-.515,1.5-.866,1.309-1.925-.153-.039-.3-.132-.394-.092a14.2,14.2,0,0,0-1.566.73,80.919,80.919,0,0,0-18.992,15.03,40.442,40.442,0,0,0-6.075,8.43A22.5,22.5,0,0,0,28.031,141.056Zm30.679-34.14A67.9,67.9,0,0,1,78.293,97c7.091-2.174,14.415-2.765,21.664-3.032.964-1.208,1.819-2.192,2.565-3.252a10.892,10.892,0,0,0,.833-1.971A71.469,71.469,0,0,0,81.93,90.775,16.994,16.994,0,0,0,77.2,92.806c-4.07,2.486-8.055,5.112-12.048,7.722A20.867,20.867,0,0,0,58.71,106.916Zm82.669,55.925c2.472-.373,3.822-1.964,5.456-3.03a15.865,15.865,0,0,0,6.407-8.985,45.61,45.61,0,0,0,1.652-18.867,42.434,42.434,0,0,0-.943-4.306c-.575.51-.968.724-1.163,1.054a11.1,11.1,0,0,0-1.234,4.983c-.63,8.226-2.777,15.935-8.136,22.459C141.855,158.052,141.837,160.341,141.379,162.841ZM31.609,146.477c-1.826,2.507-1.751,4.5-.489,6.521.381.612.688,1.271,1.066,1.886a142.989,142.989,0,0,0,11.891,15.993,3.71,3.71,0,0,0,1.245,1.178,22.691,22.691,0,0,0,8.69,2.01c-.069-.373-.046-.568-.131-.648a7.494,7.494,0,0,0-1-.815c-6.547-4.281-11.231-9.918-12.922-17.732a3.977,3.977,0,0,0-2.075-2.61A16.615,16.615,0,0,1,31.609,146.477ZM107.4,84.4c4.391-4.709,8.546-9.165,12.7-13.627a.621.621,0,0,0,.145-.4c0-.11-.112-.219-.283-.521a255.68,255.68,0,0,0-27.1,13.6c-.152.091-.129.475-.242.95ZM80.906,195.9c.5-.758.739-1.116.98-1.471,2.9-4.286,5.817-8.566,8.7-12.87a4.094,4.094,0,0,0,.244-1.355,56.03,56.03,0,0,0-8.265.7c-2.69.339-5.435.248-8.46.356a29.577,29.577,0,0,0,.646,2.988A41.871,41.871,0,0,0,80.906,195.9Zm190.5-42.722a15.814,15.814,0,0,0,6.863-7.682,5.113,5.113,0,0,0-.988-6.029,14.922,14.922,0,0,0-2.969-2.515,24.854,24.854,0,0,0-8.458-3.3c-.336-.068-.792.453-1.255.74C270.68,140.459,273.231,142.075,271.4,153.174Zm-66.907-22.3c-2.969-1.915-5.838-1.611-8.866-.632-.887,3.534-2.118,6.907-2.123,10.63A21.309,21.309,0,0,0,204.494,130.874Zm-159.415-7.6a29.4,29.4,0,0,0-8.064,17.332,13.14,13.14,0,0,0,.409,3.846c.08.449.513.835.785,1.249C39.042,137.677,41.705,130.446,45.079,123.276Zm61.605-28.743c4.854,1.6,4.858,1.607,8.9-.959.838-.533,1.638-1.125,2.685-1.849a11,11,0,0,0-7.548-2.149C109.288,91.149,107.554,92.459,106.684,94.533ZM104.553,96.8c-4.137,3.764-6.379,6.543-7.279,8.958,3.845-2.124,9.1-6.024,10.967-8.2ZM29.625,159.405a8.316,8.316,0,0,0,3.116,6.768c1.569,1.261,3.163,2.7,5.877,2.6-2.785-3.14-5.253-5.932-7.739-8.707A6.186,6.186,0,0,0,29.625,159.405ZM127.35,168.9a21.232,21.232,0,0,0,8.577-2.641c1.15-.578,1.167-1.074.349-3.134Zm47.8-39.465a13.49,13.49,0,0,0-4.34,7.323l3.147-.385c.424-2.014.824-3.835,1.182-5.664A6.766,6.766,0,0,0,175.149,129.433Zm-25.634-11.664.186-.341-.283-.057Z" fill="#e415c7"/><path d="M334.859,104.48c.729,6.426,1.4,12.024,1.985,17.632.255,2.448.439,4.913.465,7.373a1.943,1.943,0,0,1-3.02,1.81,17.021,17.021,0,0,1-3.793-2.836c-1.846-1.842-3.524-3.854-5.24-5.823a5.013,5.013,0,0,0-2.516-1.957c.262,1.034.463,2.089.8,3.1a78.428,78.428,0,0,1,3.591,14.322,6.052,6.052,0,0,1-.056,2.55,2.637,2.637,0,0,1-1.443,1.389,1.654,1.654,0,0,1-2.152-.968,14.6,14.6,0,0,1-.9-2.893,111.4,111.4,0,0,0-6.632-20.675c-.868-1.992-1.6-4.045-2.368-6.079a22.7,22.7,0,0,0-2.975-6.259,3.315,3.315,0,0,1-.779-1.977,2.744,2.744,0,0,1,1.031-1.745,1.651,1.651,0,0,1,1.578-.039,25.572,25.572,0,0,1,3.139,2.965c4.659,5.177,9.274,10.394,13.922,15.581.549.612,1.209,1.124,2.122,1.962.491-1.877-.142-3.22-.24-4.575-.105-1.447-.281-2.889-.425-4.332-.516-5.194-1.1-10.381-1.509-15.583a9.7,9.7,0,0,0-1.531-4.88,27.436,27.436,0,0,1-2.5-4.569c-.811-1.92.183-3.511,2.394-3.35,1.336.1,1.887-1.394,3.469-.772A42.258,42.258,0,0,1,332.632,89a15.955,15.955,0,0,0,2.486,5.949c4.247,7.09,8.451,14.207,12.515,21.4a39.618,39.618,0,0,1,2.5,6.456c.078.221-.353.7-.648.936a.809.809,0,0,1-.775-.122,22.885,22.885,0,0,1-2.258-2.62c-3.121-4.543-6.182-9.128-9.29-13.68C336.623,106.539,335.963,105.836,334.859,104.48Z" fill="#e415c7"/><path d="M314.151,145.784c.5,1.439,1,2.771,1.433,4.124.748,2.342,1.534,4.677,2.161,7.053,1.192,4.518-.08,8.576-2.531,12.372-.385.6-.5.677-2.71,1.554a5.389,5.389,0,0,1-.062-1.614c2.029-6.912.775-13.466-2.107-19.846-.284-.631-.693-1.206-1.153-1.994l-6.92,2.368c-1.1,2.559-.234,5.471-2.245,7.53-1.313-1.381-1.313-1.381-2.18-6.057-.911.051-1.863.136-2.816.149a12.324,12.324,0,0,1-2.581-.119,1.807,1.807,0,0,1-1.5-1.873,1.543,1.543,0,0,1,1.259-1.54c1.654-.463,3.3-.94,4.844-1.379.758-2.332.333-4.373.013-6.318-1.407-8.57-2.936-17.12-4.521-25.658a36.4,36.4,0,0,0-1.574-4.5,14.11,14.11,0,0,1-.72-2.9c-.142-1.374.662-2.128,2.019-2.359,1.389.486,1.827,1.817,2.25,2.987,1.836,5.071,4.64,9.646,7.166,14.364q4.306,8.043,8.624,16.078c.474.882.979,1.747,1.575,2.805,2.029-.541,3.942-1.114,5.888-1.544.945-.208,2.036-.5,2.77.54.515.728.026,1.811-1.448,2.8C317.541,143.853,315.9,144.743,314.151,145.784Zm-13.244-15.116-.6.35c.362,2.276.681,4.561,1.1,6.827.409,2.211-.1,4.625,1.307,6.719,1.655-.4,3.19-.675,4.491-2.184-1.815-3.484-3.6-6.933-5.414-10.373A15.32,15.32,0,0,0,300.907,130.668Z" fill="#e415c7"/><path d="M92.469,219.3a30.461,30.461,0,0,1,.929-3.43,6.493,6.493,0,0,1,4.36-3.907,8.931,8.931,0,0,1,9.288,3.132,8.494,8.494,0,0,1,.9,9.348,8.982,8.982,0,0,1-8.727,4.478C95.4,228.35,92.437,224.464,92.469,219.3Zm12.5,1.444a4.87,4.87,0,0,0-4.733-5.112c-2.441-.111-4.807,1.823-4.832,3.95-.033,2.956,2.3,5.812,4.718,5.769A5.085,5.085,0,0,0,104.969,220.743Z" fill="#e415c7"/><path d="M73.656,226.474a13.335,13.335,0,0,1-2.346-.483c-3.385-1.193-5.006-4.066-4.1-7.515,1.107-4.216,4.006-6.906,7.945-8.508a3.342,3.342,0,0,1,3.278.512,10.68,10.68,0,0,1,3.774,9.992C81.318,224.154,78.235,226.487,73.656,226.474ZM74,222.148c2.853-.087,4.343-1.846,3.848-4.346a9.47,9.47,0,0,0-1.12-2.786,1.727,1.727,0,0,0-2.9-.419,9.416,9.416,0,0,0-2.638,4.9,2.139,2.139,0,0,0,1.427,2.387A10.363,10.363,0,0,0,74,222.148Z" fill="#e415c7"/><path d="M14.016,171.006c0,.145.005.29,0,.434-.133,3.256-2.287,6.3-4.94,6.991-2.841.736-5.862-.7-7.7-3.64a7.894,7.894,0,0,1,2.969-11.553,5.381,5.381,0,0,1,6.132.591A9.9,9.9,0,0,1,14.016,171.006Zm-3.52.022a31.119,31.119,0,0,0-1.672-3.423,2.634,2.634,0,0,0-3.362-1.213,3.073,3.073,0,0,0-2.34,3.236,5.88,5.88,0,0,0,3,4.969,2.212,2.212,0,0,0,3.062-.655A24.294,24.294,0,0,0,10.5,171.028Z" fill="#e415c7"/><path d="M79.883,240.825a5.31,5.31,0,0,1,4.937-5.477,4.559,4.559,0,0,1,4.705,4.556c-.035,2.77-2.48,5.526-4.974,5.607A4.82,4.82,0,0,1,79.883,240.825Zm4.221-2.958a2.039,2.039,0,0,0-1.827,2.042,2.591,2.591,0,0,0,1.821,2.633c1.077.163,2.3-1.216,2.314-2.612A2.177,2.177,0,0,0,84.1,237.867Z" fill="#e415c7"/><path d="M5.35,144.28c1.025-.461,1.545-.692,2.062-.927a3.609,3.609,0,0,1,4.666.936,5.072,5.072,0,0,1,1.053,5.228c-.538,1.522-1.926,2.268-3.824,2.13A4.044,4.044,0,0,1,5.38,148.3,33.658,33.658,0,0,1,5.35,144.28Zm6.922,3.53c-.119-1.924-1.61-3.5-3.19-3.365a3.361,3.361,0,0,0-2.62,2.981,3.509,3.509,0,0,0,3.565,3.055A2.526,2.526,0,0,0,12.272,147.81Z" fill="#e415c7"/><path d="M161.768,143.872l.875-2.473c.629,1.418.463,2.193-.886,2.419Z" fill="#e415c7"/><path d="M226.024,178.966h1.381v.067q-.7,0-1.4,0Z" fill="#e415c7"/><polygon points="149.515 117.769 149.418 117.371 149.701 117.428 149.515 117.769" fill="#e415c7"/><path d="M181.874,173.586l-.571-.127a.78.78,0,0,0,.261.125,1.4,1.4,0,0,0,.34-.066Z" fill="#e415c7"/><path d="M99.757,171.321c-5.679.3-11.094-2.121-15.252-7.088a26.417,26.417,0,0,1-6.251-20.161c.776-8.826,5.12-15.254,11.878-20.351,10.684-8.06,25.5-3.474,30.734,8.3a29.831,29.831,0,0,1-5.7,33.533,15.409,15.409,0,0,1-11.058,5.365C102.95,170.95,101.8,171.126,99.757,171.321Zm18.49-24.78c.165-6.6-4.782-15.412-12.84-18.16-6.2-2.112-12.11-1.54-16.948,3.273A18.5,18.5,0,0,0,83.072,146.3a23.777,23.777,0,0,0,4.289,12.155,18.067,18.067,0,0,0,11.724,7.615,10.393,10.393,0,0,0,4.717-.119c6.239-1.734,10.892-5.384,12.819-11.8C117.365,151.677,117.717,149.082,118.247,146.541Z" fill="#e415c7"/></g></g></svg>