<svg id="Capa_2" data-name="Capa 2" xmlns="http://www.w3.org/2000/svg" viewBox="0 0 1124 294"><path d="M1098.819,78.375a44.5,44.5,0,0,0-.5-6.654v-1.75A36.224,36.224,0,0,0,1062.1,33.747H85.543A36.224,36.224,0,0,0,49.319,69.971v1.75a44.5,44.5,0,0,0-.5,6.654V197.12a44.511,44.511,0,0,0,.5,6.654v1.75a36.223,36.223,0,0,0,36.224,36.223h31.379a26.009,26.009,0,0,0,24.9,18.5h282a26.009,26.009,0,0,0,24.9-18.5H1062.1a36.223,36.223,0,0,0,36.223-36.223v-1.75a44.511,44.511,0,0,0,.5-6.654Z" fill="none" stroke="#03f1fb" stroke-miterlimit="10" stroke-width="20"/><rect x="49.181" y="34.253" width="1050" height="207" rx="44.128" fill="#0b8ffc"/><rect x="89.181" y="51.253" width="925" height="174" rx="46.606" fill="#04125b"/><rect x="1036.181" y="79.253" width="41" height="117" rx="18.819" fill="#03f1fb" stroke="#101364" stroke-miterlimit="10" stroke-width="6"/><rect x="49.681" y="33.753" width="1049" height="208" rx="36.223" fill="none" stroke="#101364" stroke-miterlimit="10" stroke-width="6"/><rect x="116.181" y="208.253" width="334" height="52" rx="26" fill="#1889e7" stroke="#101364" stroke-miterlimit="10" stroke-width="6"/><text transform="translate(194.352 245.367)" font-size="33.328" fill="#fff" font-family="Determination">ANIMATION</text><text transform="translate(206.372 195.585)" font-size="138" fill="#03f1fb" font-family="Determination">ANIMACIÓN</text></svg>