<svg xmlns="http://www.w3.org/2000/svg" viewBox="0 0 1124 294"><g id="Capa_3" data-name="Capa 3"><path d="M1098.915,91.428a44.511,44.511,0,0,0-.5-6.654v-1.75A36.223,36.223,0,0,0,1062.192,46.8H85.638A36.223,36.223,0,0,0,49.415,83.024v1.75a44.511,44.511,0,0,0-.5,6.654V210.173a44.511,44.511,0,0,0,.5,6.654v1.75A36.224,36.224,0,0,0,85.638,254.8h573.38a26.009,26.009,0,0,0,24.9,18.5h282a26.009,26.009,0,0,0,24.9-18.5h71.38a36.224,36.224,0,0,0,36.223-36.224v-1.75a44.511,44.511,0,0,0,.5-6.654Z" fill="none" stroke="#c0f430" stroke-miterlimit="10" stroke-width="21"/><rect x="49.085" y="47.199" width="1050" height="207" rx="44.128" fill="#e415c7"/><rect x="89.085" y="64.199" width="925" height="174" rx="46.606" fill="#04125b"/><rect x="1036.085" y="92.199" width="41" height="117" rx="18.819" fill="#bef132" stroke="#101364" stroke-miterlimit="10" stroke-width="6"/><rect x="49.585" y="46.699" width="1049" height="208" rx="36.223" fill="none" stroke="#101364" stroke-miterlimit="10" stroke-width="6"/><rect x="658.085" y="221.199" width="334" height="52" rx="26" fill="#ee12d6" stroke="#101364" stroke-miterlimit="10" stroke-width="6"/><text transform="translate(136.35 200.725)" font-size="130.9" fill="#c0f430" font-family="Determination">ILUSTRACIÓN</text><text transform="translate(708.35 259.283)" font-size="33.328" fill="#fff" font-family="Determination">ILLUSTRATION</text></g></svg>